<mxfile host="app.diagrams.net" modified="2023-06-27T02:58:21.446Z" agent="Mozilla/5.0 (Macintosh; Intel Mac OS X 10_15_7) AppleWebKit/537.36 (KHTML, like Gecko) Chrome/114.0.0.0 Safari/537.36 Edg/114.0.1823.37" version="21.5.0" etag="BwcGalkKL49og7wF1WK8" type="github">
  <diagram name="第 1 页" id="IwBKcE_-GY_a5WC-Fx4b">
    <mxGraphModel>
      <root>
        <mxCell id="0" />
        <mxCell id="1" parent="0" />
      </root>
    </mxGraphModel>
  </diagram>
</mxfile>
